<svg width="18" height="13" viewBox="0 0 18 13" fill="none" xmlns="http://www.w3.org/2000/svg">
<path id="&#237;&#140;&#168;&#236;&#138;&#164; 1" d="M15.0655 1.39107C15.0655 1.02213 15.22 0.668311 15.4952 0.407435C15.7704 0.14656 16.1436 0 16.5327 0C16.9219 0 17.2951 0.14656 17.5702 0.407435C17.8454 0.668311 18 1.02213 18 1.39107V9.26774C18 11.5465 16.298 13 14.0213 13C11.7446 13 10.0426 11.5465 10.0426 9.26774V5.68267C10.0426 5.01496 9.61745 4.58275 8.99983 4.58275C8.38221 4.58275 7.95773 5.01496 7.95773 5.68267V9.26774C7.95773 11.5465 6.25535 13 3.97903 13C1.70272 13 0 11.5465 0 9.26774V1.39107C0 1.02213 0.154586 0.668311 0.429753 0.407435C0.704919 0.14656 1.07813 0 1.46727 0C1.85642 0 2.22962 0.14656 2.50479 0.407435C2.77996 0.668311 2.93454 1.02213 2.93454 1.39107V9.26774C2.93454 9.93577 3.36005 10.3676 3.97733 10.3676C4.5946 10.3676 5.01977 9.93545 5.01977 9.26774V5.68267C5.01977 3.40423 6.72181 1.95041 8.99812 1.95041C11.2744 1.95041 12.9768 3.40391 12.9768 5.68267V9.26774C12.9768 9.93577 13.4027 10.3676 14.0196 10.3676C14.6365 10.3676 15.0624 9.93545 15.0624 9.26774L15.0655 1.39107Z" fill="#1F46D0"/>
</svg>
